<?xml version="1.0" encoding="UTF-8"?>
<svg xmlns="http://www.w3.org/2000/svg" xmlns:xlink="http://www.w3.org/1999/xlink" width="841.89pt" height="595.28pt" viewBox="0 0 841.89 595.28" version="1.1">
<g id="surface1">
<path style=" stroke:none;fill-rule:nonzero;fill:rgb(7.575989%,20.988464%,42.828369%);fill-opacity:1;" d="M 191.042969 367.707031 L 476.554688 367.707031 L 476.554688 165.609375 L 191.042969 165.609375 Z M 479.53125 370.6875 L 188.066406 370.6875 L 188.066406 162.628906 L 479.53125 162.628906 Z M 479.53125 370.6875 "/>
<path style=" stroke:none;fill-rule:nonzero;fill:rgb(32.409668%,67.562866%,89.477539%);fill-opacity:1;" d="M 462.4375 370.695313 L 670.777344 370.695313 L 670.777344 162.605469 L 462.4375 162.605469 Z M 462.4375 370.695313 "/>
<path style=" stroke:none;fill-rule:nonzero;fill:rgb(100%,100%,100%);fill-opacity:1;" d="M 657.546875 226.300781 C 655.316406 226.300781 652.230469 226.175781 650.410156 225.550781 C 648.25 224.804688 646.355469 223.34375 644.332031 221.792969 C 643.304688 221.015625 642.265625 220.210938 641.15625 219.457031 C 639.789063 218.539063 638.632813 218.132813 637.539063 218.132813 C 636.066406 218.132813 634.664063 218.910156 632.902344 220.710938 C 630.554688 223.132813 626.808594 228.625 625.289063 230.882813 C 625.199219 231.015625 625.074219 231.171875 624.886719 231.171875 C 624.523438 231.171875 624.503906 230.691406 624.503906 230.53125 C 624.441406 224.238281 623.421875 189.921875 622.753906 179.683594 C 622.449219 175.148438 621.023438 172.332031 619.078125 172.332031 C 617.503906 172.332031 615.15625 174.425781 613.671875 180.339844 C 609.894531 195.382813 601.886719 228.851563 598.4375 245.839844 C 598.324219 246.308594 597.800781 246.308594 597.703125 245.839844 C 597.328125 244.113281 596.960938 242.136719 596.636719 240.472656 C 595.613281 235.242188 594.738281 230.714844 592.957031 228.222656 C 590.972656 225.386719 587.992188 225.214844 584.414063 227.578125 C 583.589844 228.121094 582.839844 228.777344 582.027344 229.480469 C 579.710938 231.460938 577.109375 233.722656 572.773438 233.722656 L 530.394531 233.722656 L 529.363281 239.328125 L 573.933594 239.328125 C 578.503906 239.328125 582.726563 236.714844 585.257813 234.902344 C 586.554688 233.988281 587.414063 233.441406 588.136719 233.441406 C 589.121094 233.441406 589.566406 234.4375 589.921875 235.925781 C 590.097656 236.679688 590.320313 237.6875 590.570313 238.847656 C 591.421875 242.730469 592.675781 248.855469 594.292969 252.921875 C 595.03125 254.820313 596.167969 255.859375 597.429688 255.859375 C 599.378906 255.859375 601.359375 253.554688 602.496094 249.996094 C 604.011719 245.246094 612.996094 206.160156 616.796875 189.800781 C 616.972656 189.136719 617.015625 188.746094 617.058594 188.722656 C 617.109375 188.4375 617.292969 188.246094 617.542969 188.246094 C 617.734375 188.246094 617.964844 188.410156 617.988281 188.78125 L 617.988281 188.84375 C 618.257813 205.410156 619.078125 234.484375 620.316406 237.472656 C 620.996094 239.113281 622.03125 239.980469 623.351563 239.980469 C 624.851563 239.980469 626.648438 238.78125 627.949219 236.914063 C 628.597656 235.96875 629.402344 234.742188 630.289063 233.441406 C 632.425781 230.242188 634.882813 226.621094 635.578125 225.851563 C 636.675781 224.710938 637.90625 224.710938 639.65625 225.90625 C 639.914063 226.078125 640.210938 226.300781 640.566406 226.5625 C 642.433594 227.90625 645.570313 229.78125 649.09375 230.734375 C 651.414063 231.386719 654.410156 231.523438 656.527344 231.523438 C 657.886719 231.523438 659.320313 231.472656 659.726563 231.441406 L 660.71875 226.222656 C 660.1875 226.265625 658.824219 226.300781 657.546875 226.300781 M 544.539063 195.910156 C 552.625 196.359375 550.121094 213.226563 541.554688 212.75 C 532.742188 212.265625 535.601563 195.429688 544.539063 195.910156 M 531.867188 225.664063 L 534.324219 212.363281 C 535.265625 214.273438 537.96875 216.695313 542.296875 216.695313 C 550.082031 216.695313 554.878906 210.613281 555.375 203.511719 C 555.882813 195.949219 551.441406 191.59375 546.296875 191.59375 C 541.84375 191.59375 538.796875 193.757813 537.242188 196.027344 L 537.300781 195.699219 C 537.792969 193.382813 535.820313 192.078125 534.144531 192.078125 L 532.464844 192.078125 C 532.464844 192.078125 527.914063 218.023438 527.300781 221.132813 C 526.582031 224.8125 529.566406 225.664063 530.480469 225.664063 Z M 523.195313 192.078125 L 521.632813 192.078125 C 521.632813 192.078125 519.332031 205.3125 519.054688 206.832031 C 518.496094 210.070313 516.941406 212.289063 512.554688 212.289063 C 510.046875 212.289063 507.628906 210.785156 508.183594 207.414063 C 508.414063 206.109375 510.066406 196.484375 510.210938 195.699219 C 510.65625 193.09375 508.445313 192.078125 506.617188 192.078125 L 505.234375 192.078125 C 504.894531 194.109375 503.367188 202.558594 502.789063 205.875 C 502.566406 207.203125 502.480469 208.566406 502.566406 209.449219 C 503.113281 213.9375 507.039063 216.695313 511.933594 216.695313 C 520.359375 216.695313 523.542969 212.273438 524.546875 207.042969 C 524.847656 205.3125 526.476563 196.578125 526.59375 195.699219 C 526.941406 193.09375 524.804688 192.078125 523.195313 192.078125 M 489.582031 196.636719 C 488.828125 196.894531 487.820313 196.953125 486.015625 196.953125 L 481.964844 196.953125 L 483.871094 186.171875 L 489.167969 186.171875 C 495.546875 186.171875 495.046875 194.851563 489.582031 196.636719 M 487.261719 212.015625 C 486.578125 212.183594 485.488281 212.273438 483.207031 212.273438 L 479.253906 212.273438 L 481.246094 200.980469 L 487.117188 200.980469 C 494.890625 200.980469 494.171875 210.300781 487.261719 212.015625 M 500.058594 190.433594 C 500.058594 184.976563 496.539063 182.441406 490.386719 182.441406 C 486.613281 182.441406 480.675781 182.4375 478.5 182.4375 L 472.496094 216.15625 L 483.40625 216.15625 C 485.882813 216.15625 488.238281 216.082031 489.597656 215.785156 C 495.683594 214.503906 498.167969 210.050781 498.675781 206.785156 C 499.351563 202.273438 496.5 199.296875 493.273438 198.5625 C 495.683594 198.054688 500.058594 195.535156 500.058594 190.433594 M 572.359375 195.488281 C 581.117188 195.988281 578.269531 212.769531 569.34375 212.273438 C 561.273438 211.828125 563.773438 195.011719 572.359375 195.488281 M 567.800781 216.671875 C 572.542969 216.671875 575.097656 214.578125 576.625 212.183594 L 576.546875 212.539063 C 576.09375 214.785156 577.960938 216.15625 579.710938 216.15625 L 581.226563 216.15625 L 585.484375 192.054688 L 580.230469 192.054688 L 579.523438 195.742188 C 578.585938 193.835938 575.914063 191.574219 571.585938 191.574219 C 563.96875 191.574219 559.449219 197.84375 558.6875 204.527344 C 557.8125 212.199219 562.757813 216.671875 567.800781 216.671875 "/>
<path style=" stroke:none;fill-rule:nonzero;fill:rgb(7.575989%,20.988464%,42.828369%);fill-opacity:1;" d="M 204.398438 408.179688 L 193.90625 408.179688 L 193.90625 396.890625 L 189.007813 396.890625 L 189.007813 424.480469 L 193.90625 424.480469 L 193.90625 412.804688 L 204.398438 412.804688 L 204.398438 424.480469 L 209.292969 424.480469 L 209.292969 396.890625 L 204.398438 396.890625 Z M 204.398438 408.179688 "/>
<path style=" stroke:none;fill-rule:nonzero;fill:rgb(7.575989%,20.988464%,42.828369%);fill-opacity:1;" d="M 224.601563 424.480469 L 241.605469 424.480469 L 241.605469 419.859375 L 229.496094 419.859375 L 229.496094 413 L 239.261719 413 L 239.261719 408.492188 L 229.496094 408.492188 L 229.496094 401.476563 L 241.605469 401.476563 L 241.605469 396.890625 L 224.601563 396.890625 Z M 224.601563 424.480469 "/>
<path style=" stroke:none;fill-rule:nonzero;fill:rgb(7.575989%,20.988464%,42.828369%);fill-opacity:1;" d="M 265.132813 401.28125 L 268.167969 414.273438 L 261.019531 414.273438 L 264.128906 401.28125 Z M 269.050781 396.890625 L 260.289063 396.890625 L 253.59375 424.480469 L 258.542969 424.480469 L 259.949219 418.898438 L 269.128906 418.898438 L 270.730469 424.480469 L 275.671875 424.480469 L 269.101563 397.105469 Z M 269.050781 396.890625 "/>
<path style=" stroke:none;fill-rule:nonzero;fill:rgb(7.575989%,20.988464%,42.828369%);fill-opacity:1;" d="M 293.6875 396.890625 L 288.792969 396.890625 L 288.792969 424.480469 L 303.925781 424.480469 L 303.925781 419.824219 L 293.6875 419.824219 Z M 293.6875 396.890625 "/>
<path style=" stroke:none;fill-rule:nonzero;fill:rgb(7.575989%,20.988464%,42.828369%);fill-opacity:1;" d="M 314.617188 401.667969 L 321.691406 401.667969 L 321.691406 424.480469 L 326.585938 424.480469 L 326.585938 401.667969 L 333.460938 401.667969 L 333.460938 396.890625 L 314.617188 396.890625 Z M 314.617188 401.667969 "/>
<path style=" stroke:none;fill-rule:nonzero;fill:rgb(7.575989%,20.988464%,42.828369%);fill-opacity:1;" d="M 361.265625 408.179688 L 350.769531 408.179688 L 350.769531 396.890625 L 345.875 396.890625 L 345.875 424.480469 L 350.769531 424.480469 L 350.769531 412.804688 L 361.265625 412.804688 L 361.265625 424.480469 L 366.160156 424.480469 L 366.160156 396.890625 L 361.265625 396.890625 Z M 361.265625 408.179688 "/>
<path style=" stroke:none;fill-rule:nonzero;fill:rgb(7.575989%,20.988464%,42.828369%);fill-opacity:1;" d="M 399.75 424.480469 L 404.726563 424.480469 L 404.726563 396.890625 L 399.75 396.890625 Z M 399.75 424.480469 "/>
<path style=" stroke:none;fill-rule:nonzero;fill:rgb(7.575989%,20.988464%,42.828369%);fill-opacity:1;" d="M 436.125 419.390625 L 436.011719 419.390625 L 427.761719 397.078125 L 427.691406 396.890625 L 419.757813 396.890625 L 419.757813 424.480469 L 424.730469 424.480469 L 424.730469 401.980469 L 424.804688 401.980469 L 433.320313 424.480469 L 441.058594 424.480469 L 441.058594 396.890625 L 436.125 396.890625 Z M 436.125 419.390625 "/>
<path style=" stroke:none;fill-rule:nonzero;fill:rgb(7.575989%,20.988464%,42.828369%);fill-opacity:1;" d="M 465.636719 408.585938 C 461.375 407.253906 460.050781 406.480469 460.050781 404.242188 C 460.050781 401.601563 462.488281 401.042969 464.539063 401.042969 C 466.761719 401.042969 472.070313 401.585938 472.125 401.589844 L 472.417969 401.617188 L 472.597656 397.378906 L 472.367188 397.328125 C 472.320313 397.320313 467.882813 396.421875 464.300781 396.421875 C 458.40625 396.421875 455.15625 399.210938 455.15625 404.28125 C 455.15625 409.300781 457.613281 410.949219 463.125 412.753906 C 467.082031 413.953125 468.398438 414.675781 468.398438 416.585938 C 468.398438 419.183594 466.984375 420.292969 463.675781 420.292969 C 461.261719 420.292969 456.144531 419.714844 456.089844 419.707031 L 455.796875 419.675781 L 455.53125 424.046875 L 455.777344 424.085938 C 455.824219 424.097656 460.53125 424.914063 464.03125 424.914063 C 470.460938 424.914063 473.332031 422.292969 473.332031 416.429688 C 473.332031 411.628906 470.988281 410.355469 465.636719 408.585938 "/>
<path style=" stroke:none;fill-rule:nonzero;fill:rgb(7.575989%,20.988464%,42.828369%);fill-opacity:1;" d="M 501.136719 415.570313 C 501.136719 418.785156 499.664063 420.097656 496.0625 420.097656 C 492.542969 420.097656 491.113281 418.785156 491.113281 415.570313 L 491.113281 396.890625 L 486.175781 396.890625 L 486.175781 415.570313 C 486.175781 421.976563 489.226563 424.835938 496.0625 424.835938 C 502.984375 424.835938 506.070313 421.976563 506.070313 415.570313 L 506.070313 396.890625 L 501.136719 396.890625 Z M 501.136719 415.570313 "/>
<path style=" stroke:none;fill-rule:nonzero;fill:rgb(7.575989%,20.988464%,42.828369%);fill-opacity:1;" d="M 525.960938 401.476563 L 531.070313 401.476563 C 533.757813 401.476563 535.363281 403.125 535.363281 405.882813 C 535.363281 408.125 534.257813 410.523438 531.148438 410.523438 L 525.960938 410.523438 Z M 540.414063 405.804688 C 540.414063 399.890625 537.273438 396.890625 531.070313 396.890625 L 521.066406 396.890625 L 521.066406 424.480469 L 525.960938 424.480469 L 525.960938 414.992188 L 530.695313 414.988281 L 531.355469 414.957031 L 535.179688 424.480469 L 540.589844 424.480469 L 536.195313 413.75 C 539.035156 412.332031 540.414063 409.726563 540.414063 405.804688 "/>
<path style=" stroke:none;fill-rule:nonzero;fill:rgb(7.575989%,20.988464%,42.828369%);fill-opacity:1;" d="M 563.863281 401.28125 L 566.898438 414.273438 L 559.75 414.273438 L 562.859375 401.28125 Z M 567.78125 396.890625 L 559.019531 396.890625 L 552.324219 424.480469 L 557.273438 424.480469 L 558.679688 418.898438 L 567.859375 418.898438 L 569.460938 424.480469 L 574.402344 424.480469 L 567.832031 397.105469 Z M 567.78125 396.890625 "/>
<path style=" stroke:none;fill-rule:nonzero;fill:rgb(7.575989%,20.988464%,42.828369%);fill-opacity:1;" d="M 603.890625 419.390625 L 603.777344 419.390625 L 595.523438 397.078125 L 595.457031 396.890625 L 587.523438 396.890625 L 587.523438 424.480469 L 592.492188 424.480469 L 592.492188 401.980469 L 592.570313 401.980469 L 601.085938 424.480469 L 608.824219 424.480469 L 608.824219 396.890625 L 603.890625 396.890625 Z M 603.890625 419.390625 "/>
<path style=" stroke:none;fill-rule:nonzero;fill:rgb(7.575989%,20.988464%,42.828369%);fill-opacity:1;" d="M 633.550781 401.199219 C 635.578125 401.199219 640.152344 401.742188 640.199219 401.746094 L 640.496094 401.78125 L 640.675781 397.378906 L 640.441406 397.332031 C 640.402344 397.320313 636.082031 396.421875 632.964844 396.421875 C 625.652344 396.421875 622.804688 400.433594 622.804688 410.726563 C 622.804688 419.484375 624.503906 424.914063 632.964844 424.914063 C 635.730469 424.914063 640.347656 424.136719 640.394531 424.125 L 640.632813 424.085938 L 640.5 419.636719 L 640.203125 419.667969 C 640.15625 419.675781 635.46875 420.171875 633.667969 420.171875 C 629.242188 420.171875 627.894531 417.96875 627.894531 410.726563 C 627.894531 403.429688 629.214844 401.199219 633.550781 401.199219 "/>
<path style=" stroke:none;fill-rule:nonzero;fill:rgb(7.575989%,20.988464%,42.828369%);fill-opacity:1;" d="M 671.257813 401.476563 L 671.257813 396.890625 L 654.253906 396.890625 L 654.253906 424.480469 L 671.257813 424.480469 L 671.257813 419.859375 L 659.148438 419.859375 L 659.148438 413 L 668.914063 413 L 668.914063 408.496094 L 659.148438 408.496094 L 659.148438 401.476563 Z M 671.257813 401.476563 "/>
<path style=" stroke:none;fill-rule:evenodd;fill:rgb(92.744446%,38.415527%,9.977722%);fill-opacity:1;" d="M 227.988281 195.628906 L 242.625 208.320313 C 248.015625 213.058594 249.449219 219.351563 249.449219 225.808594 C 249.449219 241.261719 233.527344 248.558594 228.105469 261.511719 C 226.574219 265.171875 225.484375 269.246094 225.789063 273.234375 C 225.914063 274.753906 226.84375 281.066406 228.6875 281.5 C 242.449219 284.726563 253.71875 275.035156 249.300781 259.609375 C 248.253906 255.40625 247.5 253.664063 245.5625 251.082031 L 246.429688 251.082031 L 261.066406 263.996094 C 264.152344 267.140625 265.796875 269.804688 265.796875 274.105469 C 266.59375 286.476563 256.445313 295.914063 245.46875 295.914063 C 240.523438 295.914063 236.425781 294.191406 233.414063 291.605469 L 216.628906 276.976563 C 211.683594 272.671875 210.539063 267.554688 210.539063 261.097656 C 210.539063 246.53125 222.34375 238.117188 227.695313 225.59375 C 229.90625 220.445313 230.671875 215.652344 230.640625 210.050781 C 230.613281 205.617188 230.636719 199.832031 227.472656 196.304688 Z M 227.988281 195.628906 "/>
<path style=" stroke:none;fill-rule:evenodd;fill:rgb(7.575989%,20.988464%,42.828369%);fill-opacity:1;" d="M 264.101563 307.550781 C 264.148438 307.589844 280.335938 321.417969 281.679688 322.574219 L 280.804688 322.824219 C 276.066406 318.886719 270.382813 317.054688 263.609375 316.773438 C 257.382813 316.507813 251.574219 318.140625 245.828125 320.25 C 243.234375 321.210938 240.660156 322.210938 238.09375 323.242188 C 234.269531 324.773438 230.019531 325.792969 225.960938 325.316406 C 219.679688 324.5625 213.84375 320.003906 208.945313 315.589844 L 194.703125 303.300781 C 194.769531 303.347656 195.511719 303.046875 195.578125 303.078125 C 203.949219 307.828125 211.734375 310.09375 221.933594 308.667969 C 225.914063 308.117188 240.597656 301.464844 244.882813 300.957031 C 248.121094 300.570313 250.441406 300.652344 252.984375 301.371094 C 258.082031 302.804688 260.304688 304.703125 264.101563 307.550781 "/>
<path style=" stroke:none;fill-rule:nonzero;fill:rgb(7.575989%,20.988464%,42.828369%);fill-opacity:1;" d="M 363.09375 274.382813 L 372.214844 251.257813 L 372.378906 251.257813 L 380.746094 274.382813 Z M 455.21875 293.039063 C 452.335938 292.640625 451.246094 291.007813 447.902344 286.257813 L 431.910156 263.371094 L 444.578125 246.113281 C 445.878906 244.332031 448.710938 243.269531 451.144531 242.839844 C 452.726563 242.347656 453.109375 240.714844 453.195313 240.175781 L 435.488281 240.175781 C 435.488281 240.597656 435.644531 242.265625 437.53125 243.050781 C 439.425781 243.792969 440.496094 245.464844 438.71875 247.9375 L 429.453125 260.289063 L 421.457031 248.328125 C 418.921875 244.53125 420.433594 243.089844 422.773438 242.730469 C 424.4375 242.253906 424.648438 240.644531 424.671875 240.175781 L 401.199219 240.175781 C 401.1875 240.644531 401.328125 242.191406 403.261719 242.921875 C 405.644531 243.503906 407.734375 244.96875 409.5 247.617188 L 422.726563 267.574219 L 409.96875 285.230469 C 407.570313 288.605469 406.652344 290.15625 404.800781 291.398438 C 403.285156 292.5 401.640625 291.96875 400.933594 291.472656 L 400.933594 291.457031 C 399.445313 290.179688 398.242188 288.261719 397.308594 285.941406 C 394.183594 278.339844 383.960938 252.289063 378.882813 239.222656 L 373.398438 239.222656 C 366.296875 256.648438 355.992188 282.378906 352.949219 288.316406 C 351.242188 291.523438 348.53125 292.898438 346.203125 293.101563 C 346.203125 293.101563 339.960938 294.128906 339.3125 289.589844 C 339.214844 288.652344 339.214844 287.65625 339.214844 286.257813 L 339.214844 250.390625 C 339.214844 245.890625 340.664063 243.332031 344.933594 242.753906 L 344.933594 242.742188 C 346.921875 242.199219 346.785156 240.175781 346.785156 240.175781 L 331.539063 240.175781 L 310.238281 281.269531 L 289.886719 240.175781 L 273.515625 240.175781 C 273.515625 240.175781 273.464844 242.515625 275.1875 242.652344 L 275.1875 242.675781 C 278.472656 242.898438 281.101563 244.070313 281.570313 249.675781 L 281.570313 283.964844 C 281.570313 285.941406 281.332031 287.679688 281.179688 289.1875 C 280.863281 291.234375 279.523438 292.34375 276.910156 292.855469 L 276.910156 292.859375 C 274.707031 293.371094 274.5625 295.144531 274.5625 295.601563 L 292.496094 295.601563 L 292.496094 295.378906 C 292.429688 294.769531 292.050781 293.484375 290.175781 292.871094 C 287.515625 292.375 286.097656 291.257813 285.84375 289.1875 C 285.527344 287.679688 285.449219 285.941406 285.449219 283.964844 L 285.449219 254.824219 L 285.609375 254.824219 L 305.484375 295.601563 L 307.382813 295.601563 L 327.816406 256.09375 L 328.050781 256.09375 L 328.050781 286.257813 C 328.050781 288.394531 328.050781 289.582031 327.734375 291.089844 C 327.5 292.15625 325.929688 292.640625 323.664063 292.921875 C 321.59375 293.550781 321.453125 295.171875 321.460938 295.601563 L 362.078125 295.601563 C 362.078125 295.601563 362.144531 293.742188 359.867188 292.773438 C 357.796875 291.972656 357.273438 289.933594 358.1875 287.367188 L 361.566406 277.941406 L 382.183594 277.941406 L 385.644531 287.207031 C 386.667969 289.835938 386.484375 291.875 384.335938 292.722656 C 382.046875 293.554688 381.859375 295.171875 381.847656 295.601563 L 415.089844 295.601563 C 415.089844 295.601563 415.363281 293.585938 412.871094 292.636719 L 412.875 292.621094 C 411.453125 291.757813 411.257813 289.757813 413.933594 286.019531 L 424.9375 270.816406 L 436.105469 286.96875 C 438.886719 291.109375 437.6875 292.511719 435.648438 292.953125 C 433.6875 293.695313 433.511719 295.1875 433.503906 295.601563 L 456.625 295.601563 C 456.625 295.601563 456.835938 294.0625 455.21875 293.039063 "/>
</g>
</svg>
